#!OML:ASF E:\Mandelcareful walks\Project 1\Capture day 1\Session 1\Subject1.ASF
:FULLY-SPECIFIED
:DEGREES
1292
root -2.17509 15.1968 -1.94106 18.6133 -11.8011 -5.24714
lowerback 28.5642 2.83203 -3.75348
upperback 6.99458 2.03966 -3.86481
thorax -7.87742 0.960161 -2.85252
lowerneck -23.7863 12.7507 7.73818
upperneck 7.74655 17.9974 -19.5588
head 8.95744 7.10653 -4.95665
rclavicle 5.96354e-014 -1.03368e-013
rhumerus -22.7979 10.2189 -93.0246
rradius 31.4313
rwrist -53.4268
rhand 8.74989 -40.4657
rfingers 7.12502
rthumb 33.9397 -67.2628
lclavicle 5.96354e-014 -1.03368e-013
lhumerus -182.294 -97.2095 276.056
lradius 49.7718
lwrist 2.82859
lhand -13.8317 -8.15558
lfingers 7.12502
lthumb 12.2914 21.4632
rfemur -44.1022 -8.11799 5.52633
rtibia 47.0537
rfoot -11.151 -8.93542
rtoes -12.3332
lfemur -50.7742 15.4268 -20.3578
ltibia 67.2859
lfoot -32.7021 11.5676
ltoes 2.92878
1293
root -2.16537 15.2018 -1.84149 18.6809 -11.5819 -5.36456
lowerback 28.2706 2.71798 -3.71094
upperback 6.97024 1.94611 -3.70461
thorax -7.76884 0.917657 -2.65165
lowerneck -23.676 12.7827 7.75596
upperneck 7.48035 18.0074 -19.6444
head 8.86309 7.12848 -4.98911
rclavicle 1.51076e-014 -2.70347e-014
rhumerus -22.6311 10.1519 -92.8808
rradius 31.3527
rwrist -52.8118
rhand 9.18009 -40.0779
rfingers 7.12502
rthumb 34.3483 -66.7837
lclavicle 1.51076e-014 -2.70347e-014
lhumerus -181.957 -97.4241 275.775
lradius 49.8971
lwrist 3.00117
lhand -14.2124 -7.89473
lfingers 7.12502
lthumb 11.9243 21.7457
rfemur -44.6698 -8.07008 5.81496
rtibia 47.4671
rfoot -11.0053 -8.06718
rtoes -11.2826
lfemur -50.3644 15.2747 -20.2182
ltibia 67.204
lfoot -32.965 11.7053
ltoes 2.3463
1294
root -2.15618 15.212 -1.73945 18.603 -11.3456 -5.35219
lowerback 28.1839 2.63071 -3.56286
upperback 6.94166 1.89255 -3.62266
thorax -7.75863 0.892068 -2.62354
lowerneck -23.5918 12.7213 7.71997
upperneck 7.4232 17.9222 -19.6231
head 8.81208 7.09828 -4.99689
rclavicle 2.8625e-014 3.81667e-014
rhumerus -22.7517 10.6249 -92.812
rradius 31.7197
rwrist -52.8677
rhand 9.68029 -39.8113
rfingers 7.12502
rthumb 34.823 -66.4085
lclavicle 2.8625e-014 3.81667e-014
lhumerus -181.534 -97.3107 275.349
lradius 50.0566
lwrist 3.17713
lhand -14.5672 -8.07974
lfingers 7.12502
lthumb 11.5822 21.5802
rfemur -45.0245 -7.87256 5.78261
rtibia 47.7721
rfoot -11.0208 -7.01245
rtoes -8.53385
lfemur -49.8044 15.1076 -20.1739
ltibia 67.1024
lfoot -33.1149 11.6198
ltoes 1.89131
1295
root -2.15006 15.2238 -1.63375 18.4254 -11.2109 -5.21041
lowerback 28.168 2.59225 -3.40811
upperback 6.94158 1.88189 -3.69857
thorax -7.74391 0.88575 -2.79307
lowerneck -23.5523 12.678 7.8386
upperneck 7.53591 17.8241 -19.4922
head 8.82305 7.06279 -4.9927
rclavicle 2.3059e-014 2.06736e-014
rhumerus -22.8367 10.9785 -92.8239
rradius 32.273
rwrist -52.8993
rhand 10.5434 -40.3972
rfingers 7.12502
rthumb 35.6416 -66.801
lclavicle 2.3059e-014 2.06736e-014
lhumerus -180.082 -96.8197 273.73
lradius 50.2249
lwrist 3.39235
lhand -14.8771 -8.5457
lfingers 7.12502
lthumb 11.2833 21.1308
rfemur -45.3886 -7.79167 5.80471
rtibia 47.9548
rfoot -10.7602 -6.2419
rtoes -8.93532
lfemur -49.1099 14.906 -20.2447
ltibia 66.9666
lfoot -33.3201 11.5477
ltoes 1.4953
1296
root -2.14875 15.2318 -1.52606 18.3033 -11.1228 -5.02646
lowerback 28.018 2.49819 -3.4184
upperback 6.99448 1.76884 -3.74623
thorax -7.61218 0.833443 -2.79337
lowerneck -23.6209 12.7743 7.99674
upperneck 7.57036 17.9128 -19.4911
head 8.87176 7.10251 -4.9958
rclavicle 1.82882e-014 3.89618e-014
rhumerus -22.9269 11.905 -93.115
rradius 33.4328
rwrist -54.6248
rhand 7.99144 -41.772
rfingers 7.12502
rthumb 33.2189 -68.7258
lclavicle 1.82882e-014 3.89618e-014
lhumerus -178.136 -96.7901 271.483
lradius 50.5718
lwrist 3.41877
lhand -15.0051 -8.71404
lfingers 7.12502
lthumb 11.1598 20.9692
rfemur -46.0148 -8.01071 6.13423
rtibia 48.0657
rfoot -10.0534 -5.84656
rtoes -12.9017
lfemur -48.4104 14.4229 -20.3122
ltibia 66.7977
lfoot -33.6864 11.805
ltoes 1.07655
1297
root -2.1569 15.2325 -1.42114 18.1023 -11.201 -4.78688
lowerback 27.9372 2.48967 -3.64166
upperback 7.06545 1.7056 -3.74263
thorax -7.49999 0.80611 -2.63374
lowerneck -23.6621 12.8516 8.04428
upperneck 7.56685 18.0156 -19.5562
head 8.90454 7.14354 -5.00216
rclavicle -2.46493e-014 4.29375e-014
rhumerus -23.0271 12.6852 -93.2041
rradius 34.4346
rwrist -55.3118
rhand 7.13602 -42.4657
rfingers 7.12502
rthumb 32.4052 -69.5896
lclavicle -2.46493e-014 4.29375e-014
lhumerus -176.405 -96.9528 269.487
lradius 51.0161
lwrist 3.36158
lhand -15.0536 -8.56455
lfingers 7.12502
lthumb 11.113 21.1212
rfemur -46.75 -8.08732 6.51536
rtibia 48.1566
rfoot -9.21206 -5.38714
rtoes -16.9211
lfemur -47.5931 14.0695 -20.4333
ltibia 66.5552
lfoot -33.9822 12.489
ltoes -0.799801
1298
root -2.17183 15.2392 -1.31465 17.8603 -11.043 -4.45309
lowerback 27.913 2.40042 -3.88973
upperback 7.09564 1.54164 -3.62598
thorax -7.46626 0.732295 -2.30408
lowerneck -23.4846 12.9265 8.03212
upperneck 7.57444 18.1676 -19.734
head 8.92233 7.20798 -5.03431
rclavicle 1.59028e-015 -1.19271e-014
rhumerus -23.2769 13.6503 -93.1676
rradius 35.3784
rwrist -55.7219
rhand 7.13901 -42.5169
rfingers 7.12502
rthumb 32.408 -69.6401
lclavicle 1.59028e-015 -1.19271e-014
lhumerus -175.378 -97.144 268.434
lradius 51.3567
lwrist 3.41812
lhand -15.3386 -8.2804
lfingers 7.12502
lthumb 10.8382 21.4199
rfemur -47.3439 -8.08824 6.77305
rtibia 48.2194
rfoot -8.7933 -4.58342
rtoes -18.5345
lfemur -46.7563 13.6872 -20.634
ltibia 66.233
lfoot -34.0661 13.4252
ltoes -4.11217
1299
root -2.18594 15.2713 -1.2082 17.7148 -10.922 -4.28104
lowerback 27.8918 2.30494 -3.92417
upperback 7.07601 1.43076 -3.45592
thorax -7.48478 0.681451 -2.05703
lowerneck -23.2638 12.997 7.91089
upperneck 7.55856 18.3519 -19.9523
head 8.92556 7.28508 -5.05831
rclavicle -6.99722e-014 1.82882e-014
rhumerus -23.2842 14.1441 -93.0841
rradius 36.0098
rwrist -55.9243
rhand 6.57326 -42.8746
rfingers 7.12502
rthumb 31.8694 -70.1066
lclavicle -6.99722e-014 1.82882e-014
lhumerus -175.098 -97.3844 268.122
lradius 51.7055
lwrist 3.43762
lhand -15.7663 -8.33805
lfingers 7.12502
lthumb 10.4256 21.3835
rfemur -47.9339 -7.5595 6.76248
rtibia 48.2843
rfoot -9.06517 -3.29518
rtoes -14.043
lfemur -45.8387 13.1455 -20.5899
ltibia 65.7777
lfoot -34.2368 13.8198
ltoes -4.63602
1300
root -2.2109 15.2807 -1.10102 17.5766 -10.7719 -4.13958
lowerback 27.9149 2.24442 -3.74602
upperback 7.07244 1.41259 -3.35819
thorax -7.49943 0.671859 -2.04495
lowerneck -23.1669 12.9916 7.87463
upperneck 7.61197 18.4004 -20.1013
head 8.95204 7.29583 -5.09599
rclavicle 2.54444e-014 1.27222e-014
rhumerus -23.0569 13.9168 -93.0092
rradius 36.2488
rwrist -55.606
rhand 6.67279 -42.9579
rfingers 7.12502
rthumb 31.9642 -70.171
lclavicle 2.54444e-014 1.27222e-014
lhumerus -174.608 -97.3959 267.463
lradius 51.9995
lwrist 3.4001
lhand -15.9709 -8.6985
lfingers 7.12502
lthumb 10.2282 21.0328
rfemur -48.7534 -7.62278 7.51759
rtibia 48.2323
rfoot -8.89486 -2.42037
rtoes -17.404
lfemur -44.9098 12.281 -20.323
ltibia 65.3609
lfoot -34.6492 13.6311
ltoes -2.35355
1301
root -2.24713 15.2908 -0.989451 17.4413 -10.5589 -3.86958
lowerback 27.8844 2.19588 -3.72673
upperback 7.08286 1.36943 -3.27639
thorax -7.47496 0.652364 -1.94891
lowerneck -23.1297 12.9756 7.84611
upperneck 7.73606 18.4213 -20.1394
head 8.9939 7.29529 -5.1017
rclavicle 3.4191e-014 -3.73715e-014
rhumerus -22.9293 13.6647 -92.9701
rradius 36.5607
rwrist -55.0627
rhand 7.56212 -42.5096
rfingers 7.12502
rthumb 32.8106 -69.5496
lclavicle 3.4191e-014 -3.73715e-014
lhumerus -173.335 -97.3177 265.894
lradius 52.4088
lwrist 3.50856
lhand -16.162 -9.03911
lfingers 7.12502
lthumb 10.0439 20.7012
rfemur -49.6468 -7.88606 8.45161
rtibia 48.1177
rfoot -8.78747 -1.92968
rtoes -22.2681
lfemur -44.077 12.1851 -20.3669
ltibia 64.8897
lfoot -34.8022 13.1393
ltoes -1.16891
1302
root -2.28966 15.3181 -0.875221 17.3721 -10.3739 -3.56849
lowerback 27.7127 2.15177 -3.80146
upperback 7.09498 1.32105 -3.13907
thorax -7.38256 0.631333 -1.73054
lowerneck -23.1362 13.0083 7.7879
upperneck 7.93253 18.5423 -20.2311
head 9.08683 7.32747 -5.09882
rclavicle 2.22639e-014 -2.38542e-014
rhumerus -22.9184 13.9016 -92.973
rradius 37.2484
rwrist -55.0557
rhand 7.37597 -42.6552
rfingers 7.12502
rthumb 32.6335 -69.732
lclavicle 2.22639e-014 -2.38542e-014
lhumerus -171.317 -97.2832 263.63
lradius 52.9649
lwrist 3.72446
lhand -16.5295 -9.11059
lfingers 7.12502
lthumb 9.68935 20.6465
rfemur -50.4497 -7.62331 8.95186
rtibia 47.7746
rfoot -8.80555 -1.73276
rtoes -22.7228
lfemur -43.256 12.0291 -20.4463
ltibia 64.3816
lfoot -34.9407 13.0669
ltoes -1.43475
1303
root -2.31508 15.3541 -0.765846 17.3567 -10.0245 -3.17623
lowerback 27.5921 1.94966 -3.64504
upperback 7.05372 1.13387 -2.9743
thorax -7.3716 0.543588 -1.57194
lowerneck -23.0715 13.0965 7.93105
upperneck 8.13561 18.7493 -20.6323
head 9.24559 7.38188 -5.21477
rclavicle -1.59028e-015 3.18055e-015
rhumerus -23.0183 14.7663 -92.989
rradius 38.129
rwrist -55.4879
rhand 6.27071 -43.2828
rfingers 7.12502
rthumb 31.5812 -70.5718
lclavicle -1.59028e-015 3.18055e-015
lhumerus -170.925 -97.5506 263.097
lradius 53.4671
lwrist 3.67336
lhand -16.8459 -8.84485
lfingers 7.12502
lthumb 9.38401 20.9263
rfemur -51.185 -7.12215 8.77926
rtibia 47.3706
rfoot -9.08088 -0.886276
rtoes -18.1814
lfemur -42.5266 11.5306 -20.6297
ltibia 63.78
lfoot -34.9219 13.2166
ltoes -2.62578
1304
root -2.36552 15.3709 -0.648915 17.1649 -9.71564 -2.73908
lowerback 27.6627 1.83552 -3.67896
upperback 7.04429 0.997252 -2.78406
thorax -7.42091 0.481302 -1.29804
lowerneck -22.9586 13.1314 8.11026
upperneck 8.2732 18.8931 -21.1788
head 9.39112 7.40276 -5.4012
rclavicle 7.95139e-015 3.26007e-014
rhumerus -23.1656 15.6867 -93.0654
rradius 38.9958
rwrist -55.4263
rhand 5.5596 -43.5173
rfingers 7.12502
rthumb 30.9036 -70.9371
lclavicle 7.95139e-015 3.26007e-014
lhumerus -171.363 -97.9079 263.232
lradius 54.0187
lwrist 3.4502
lhand -17.0377 -8.74671
lfingers 7.12502
lthumb 9.19894 21.0326
rfemur -51.8435 -6.86402 9.21349
rtibia 46.775
rfoot -9.12889 0.173556
rtoes -20.882
lfemur -41.534 11.1665 -20.6503
ltibia 63.1807
lfoot -34.8896 12.697
ltoes -2.81624
1305
root -2.40787 15.3992 -0.529613 17.0002 -9.07171 -2.20892
lowerback 27.7164 1.49327 -3.25257
upperback 7.1076 0.695385 -2.66983
thorax -7.37314 0.336084 -1.31564
lowerneck -23.0451 13.1115 7.83594
upperneck 8.42703 19.0297 -21.42
head 9.4891 7.41843 -5.41046
rclavicle 1.43125e-014 1.35174e-014
rhumerus -23.2445 16.6249 -93.0639
rradius 39.9581
rwrist -55.4766
rhand 5.28984 -43.5215
rfingers 7.12502
rthumb 30.6464 -70.9897
lclavicle 1.43125e-014 1.35174e-014
lhumerus -169.887 -98.1056 261.457
lradius 54.5115
lwrist 3.3985
lhand -17.7276 -9.39055
lfingers 7.12502
lthumb 8.53324 20.417
rfemur -52.384 -6.65455 9.16779
rtibia 46.1566
rfoot -9.20809 1.85887
rtoes -20.5434
lfemur -40.471 9.43266 -20.5643
ltibia 62.4926
lfoot -35.0116 12.9291
ltoes -2.71652
1306
root -2.47079 15.4251 -0.412016 16.844 -8.36606 -1.61527
lowerback 27.7853 1.25563 -3.18472
upperback 7.1674 0.448423 -2.34748
thorax -7.34206 0.220839 -0.915106
lowerneck -23.2296 13.0927 7.21109
upperneck 8.63469 19.2525 -21.5093
head 9.57957 7.46454 -5.29322
rclavicle -1.43125e-014 -5.56597e-015
rhumerus -23.2095 17.4858 -92.6687
rradius 40.7665
rwrist -56.0399
rhand 5.27916 -43.5484
rfingers 7.12502
rthumb 30.6362 -71.0186
lclavicle -1.43125e-014 -5.56597e-015
lhumerus -168.694 -98.4898 260.155
lradius 55.0647
lwrist 3.41263
lhand -18.8271 -10.2071
lfingers 7.12502
lthumb 7.47206 19.6409
rfemur -52.8535 -6.15997 8.89377
rtibia 45.4024
rfoot -9.26766 3.26757
rtoes -21.6696
lfemur -39.607 9.56662 -20.8133
ltibia 61.8087
lfoot -34.3723 12.3773
ltoes -4.92449
